<svg width="48" height="46" viewBox="0 0 48 46" fill="none" xmlns="http://www.w3.org/2000/svg">
<path d="M23.8043 26.8666C26.1751 26.8666 28.097 25.0541 28.097 22.8182C28.097 20.5823 26.1751 18.7698 23.8043 18.7698C21.4336 18.7698 19.5117 20.5823 19.5117 22.8182C19.5117 25.0541 21.4336 26.8666 23.8043 26.8666Z" fill="#D9D9D9"/>
<path d="M29.1698 12.8811H18.4382C16.8773 12.8811 15.5115 13.3412 14.6334 14.1692C13.7554 14.9973 13.2676 16.2855 13.2676 17.7576V27.8787C13.2676 29.3508 13.7554 30.6389 14.731 31.559C15.7066 32.3871 16.9748 32.8472 18.5358 32.8472H29.1698C30.7308 32.8472 32.0966 32.3871 32.9746 31.559C33.9502 30.731 34.438 29.4428 34.438 27.9707V17.8496C34.438 16.3775 33.9502 15.1813 33.0722 14.2612C32.0966 13.3412 30.8283 12.8811 29.1698 12.8811ZM23.804 29.0748C20.0968 29.0748 17.17 26.2225 17.17 22.8181C17.17 19.3218 20.1943 16.5615 23.804 16.5615C27.4137 16.5615 30.5356 19.3218 30.5356 22.8181C30.5356 26.3145 27.5113 29.0748 23.804 29.0748ZM30.7308 17.7576C29.8527 17.7576 29.1698 17.1135 29.1698 16.2855C29.1698 15.4574 29.8527 14.8133 30.7308 14.8133C31.6088 14.8133 32.2917 15.4574 32.2917 16.2855C32.2917 17.1135 31.6088 17.7576 30.7308 17.7576Z" fill="#D9D9D9"/>
<path d="M23.9997 0C10.7316 0 0 10.121 0 22.6343C0 35.1476 10.7316 45.2687 23.9997 45.2687C37.2678 45.2687 47.9993 35.1476 47.9993 22.6343C48.0969 10.121 37.2678 0 23.9997 0ZM36.78 27.9709C36.78 30.0871 35.9995 31.9273 34.6337 33.2154C33.2678 34.5036 31.3166 35.1476 29.1703 35.1476H18.5363C16.39 35.1476 14.4388 34.5036 13.073 33.2154C11.6096 31.9273 10.9267 30.0871 10.9267 27.9709V17.8498C10.9267 13.6174 13.951 10.6731 18.5363 10.6731H29.2679C31.5118 10.6731 33.3654 11.4092 34.7312 12.6973C36.0971 13.9854 36.78 15.7336 36.78 17.8498V27.9709Z" fill="#D9D9D9"/>
</svg>
