<svg width="89" height="114" viewBox="0 0 89 114" fill="none" xmlns="http://www.w3.org/2000/svg">
<g clip-path="url(#clip0_40_104)">
<path d="M0.265625 104.555C2.92404 82.4206 5.58721 60.2865 8.24562 38.1524L11.9722 38.6049L12.613 33.2655L8.88649 32.813C9.8027 25.1777 10.7236 17.5425 11.6399 9.90724C15.7272 6.68263 19.8145 3.46754 23.9018 0.247681C45.5109 2.86262 67.1153 5.47756 88.7244 8.0925H88.7387C87.775 16.104 86.8113 24.1108 85.8524 32.1223L81.7366 31.6222C80.7824 39.5528 79.8282 47.4881 78.8788 55.4187C80.1653 56.276 81.4565 57.1381 82.743 57.9955C80.5118 76.5763 78.2759 95.1524 76.0447 113.733C50.785 110.671 25.5301 107.613 0.270372 104.55L0.265625 104.555Z" fill="#B3B4B4" stroke="#231F20" stroke-miterlimit="10"/>
<path d="M17.5155 10.4651L21.3236 10.9261C22.0588 11.0151 22.5851 11.6881 22.4964 12.4258L20.5811 28.3524L15.4345 27.7294L17.5107 10.4645L17.5155 10.4651Z" fill="#231F20"/>
<path d="M26.9993 4.92898L30.8074 5.39C31.5427 5.47901 32.069 6.15203 31.9803 6.88972L30.065 22.8163L24.9184 22.1933L26.9946 4.92841L26.9993 4.92898Z" fill="#231F20"/>
<path d="M34.9827 5.89129L38.7908 6.35231C39.5261 6.44132 40.0524 7.11434 39.9637 7.85203L38.0484 23.7786L32.9018 23.1556L34.978 5.89072L34.9827 5.89129Z" fill="#231F20"/>
<path d="M42.6121 6.81583L46.4202 7.27686C47.1555 7.36586 47.6818 8.03889 47.5931 8.77658L45.6778 24.7032L40.5312 24.0801L42.6074 6.81526L42.6121 6.81583Z" fill="#231F20"/>
<path d="M50.3348 7.75171L54.1429 8.21274C54.8781 8.30175 55.4044 8.97477 55.3157 9.71246L53.4005 25.6391L48.2539 25.016L50.3301 7.75114L50.3348 7.75171Z" fill="#231F20"/>
<path d="M57.9647 8.67626L61.7728 9.13728C62.508 9.22629 63.0343 9.89931 62.9456 10.637L61.0303 26.5636L55.8838 25.9405L57.96 8.67569L57.9647 8.67626Z" fill="#231F20"/>
<path d="M65.0784 9.53963L68.8865 10.0007C69.6218 10.0897 70.1481 10.7627 70.0594 11.5004L68.1441 27.427L62.9975 26.8039L65.0737 9.53906L65.0784 9.53963Z" fill="#231F20"/>
<path d="M72.5267 10.4379L76.3348 10.8989C77.07 10.9879 77.5963 11.661 77.5076 12.3986L75.5924 28.3252L70.4458 27.7022L72.522 10.4373L72.5267 10.4379Z" fill="#231F20"/>
<path d="M79.8079 11.3205L83.616 11.7816C84.3513 11.8706 84.8776 12.5436 84.7889 13.2813L82.8736 29.2079L77.727 28.5848L79.8032 11.32L79.8079 11.3205Z" fill="#231F20"/>
<path d="M63.5741 72.3372C67.4465 72.3372 70.5856 69.1875 70.5856 65.3021C70.5856 61.4167 67.4465 58.267 63.5741 58.267C59.7017 58.267 56.5625 61.4167 56.5625 65.3021C56.5625 69.1875 59.7017 72.3372 63.5741 72.3372Z" fill="#231F20"/>
<path d="M62.3729 65.9927C64.1505 65.9927 65.5915 64.5469 65.5915 62.7634C65.5915 60.9798 64.1505 59.534 62.3729 59.534C60.5953 59.534 59.1543 60.9798 59.1543 62.7634C59.1543 64.5469 60.5953 65.9927 62.3729 65.9927Z" fill="white"/>
<path d="M65.7293 69.9985C66.8462 69.9985 67.7516 69.09 67.7516 67.9694C67.7516 66.8488 66.8462 65.9403 65.7293 65.9403C64.6124 65.9403 63.707 66.8488 63.707 67.9694C63.707 69.09 64.6124 69.9985 65.7293 69.9985Z" fill="white"/>
<path d="M23.7835 67.5217C27.6559 67.5217 30.7951 64.372 30.7951 60.4866C30.7951 56.6012 27.6559 53.4515 23.7835 53.4515C19.9112 53.4515 16.772 56.6012 16.772 60.4866C16.772 64.372 19.9112 67.5217 23.7835 67.5217Z" fill="#231F20"/>
<path d="M22.5824 61.1772C24.3599 61.1772 25.8009 59.7314 25.8009 57.9479C25.8009 56.1643 24.3599 54.7185 22.5824 54.7185C20.8048 54.7185 19.3638 56.1643 19.3638 57.9479C19.3638 59.7314 20.8048 61.1772 22.5824 61.1772Z" fill="white"/>
<path d="M25.9383 65.183C27.0552 65.183 27.9606 64.2746 27.9606 63.1539C27.9606 62.0333 27.0552 61.1248 25.9383 61.1248C24.8214 61.1248 23.916 62.0333 23.916 63.1539C23.916 64.2746 24.8214 65.183 25.9383 65.183Z" fill="white"/>
<path d="M62.3446 66.4119C64.1221 66.4119 65.5631 64.966 65.5631 63.1825C65.5631 61.399 64.1221 59.9531 62.3446 59.9531C60.567 59.9531 59.126 61.399 59.126 63.1825C59.126 64.966 60.567 66.4119 62.3446 66.4119Z" fill="white"/>
<path d="M27.6461 77.0688C27.8057 75.7421 25.3523 74.3539 22.1663 73.9682C18.9803 73.5825 16.2683 74.3454 16.1087 75.6721C15.9492 76.9988 18.4026 78.387 21.5885 78.7727C24.7745 79.1584 27.4866 78.3956 27.6461 77.0688Z" fill="#4D4384"/>
<path d="M67.441 81.8866C67.6006 80.5598 65.1472 79.1717 61.9612 78.786C58.7752 78.4002 56.0632 79.1631 55.9036 80.4898C55.7441 81.8165 58.1975 83.2047 61.3834 83.5904C64.5694 83.9761 67.2815 83.2133 67.441 81.8866Z" fill="#4D4384"/>
<path d="M34.308 80.5583C34.2416 80.9632 34.1703 81.4966 34.1181 82.1253C33.9995 83.6257 34.0802 84.926 34.2036 85.9311C34.365 87.2362 34.6118 89.1033 35.6705 91.2229C36.2971 92.4803 36.6389 93.1376 37.4506 93.6378C38.7561 94.4475 40.4509 94.3903 41.6661 93.9093C42.6441 93.5234 43.1567 92.909 44.1442 91.7039C44.6948 91.0323 45.8009 89.5796 46.7788 87.3171C47.2631 86.193 47.8327 84.5974 48.1793 82.6017C43.997 81.9729 39.8147 81.349 35.6325 80.7202L34.308 80.5583Z" fill="#231F20"/>
<path d="M35.7653 91.9754C36.3539 93.1519 36.672 93.7711 37.4315 94.2379C38.6516 94.9952 40.2371 94.9428 41.3764 94.4951C42.2926 94.1331 42.7721 93.5615 43.6978 92.4279C44.0016 92.0564 44.4906 91.4182 45.0318 90.5227C41.5188 90.4227 38.0059 88.1126 34.4883 87.7267C34.6544 88.8747 34.9535 90.3417 35.77 91.9754H35.7653Z" fill="#4D4384"/>
</g>
<defs>
<clipPath id="clip0_40_104">
<rect width="89" height="114" fill="white"/>
</clipPath>
</defs>
</svg>
