<?xml version="1.0" encoding="UTF-8"?>
<svg id="Layer_1" data-name="Layer 1" xmlns="http://www.w3.org/2000/svg" viewBox="0 0 55.68 65.76">
  <defs>
    <style>
      .cls-1 {
        fill: #fff;
      }
    </style>
  </defs>
  <path class="cls-1" d="M50.64,45.6h5.04v20.16H0v-20.16h5.04v-4.98c.1-.15.38-.18.54-.18h44.88l.18.18v4.98ZM45.6,45.6l-35.52.06v4.98h-5.04v10.08h45.6v-10.08h-5.04v-5.04Z"/>
  <path class="cls-1" d="M35.4,0v5.04h4.98c.33,0,.06.81.05,1.02-.03,1.02-.11,2.65,0,3.61.02.17.01.31.19.41h4.8l.18.18v14.88c-.12.19-.44.18-.66.18h-4.5v5.04h-5.04v5.04h-15.12v-5.04h-4.98l-.15-.18c0-1.25-.08-2.57-.04-3.85,0-.2.27-1.02-.05-1.02h-4.68s-.18-.16-.3-.12v-14.94l.18-.18h4.8c.31,0,.06-.9.05-1.13-.03-1.3-.04-2.63.13-3.91h5.04V0h15.12ZM30.36,5.04h-5.04v5.04h-5.04v5.04h-4.98l-.18.18v4.86l5.1.12.06,5.04h5.04v5.04h5.04v-5.04h5.04v-4.98l5.16-.18v-4.86l-.18-.18h-4.98v-5.04h-5.04v-5.04Z"/>
</svg>