<?xml version="1.0" encoding="UTF-8"?>
<svg id="Layer_1" data-name="Layer 1" xmlns="http://www.w3.org/2000/svg" viewBox="0 0 1121 820">
  <defs>
    <style>
      .cls-1 {
        fill: #fff;
      }
    </style>
  </defs>
  <path class="cls-1" d="M172,0v42.5l1.5,1.24,39.92-.63,1.58,1.39v41l1.5,1.5h42.5v43h862v130h-40.5c-.35,0-1.11-1.77-2.5.5v85.5h-43v86h-43v86h-43v85.5l-1.5,1.5H346.5l-1.5-1.5v-84l-1.5-1.5h-42.5v-86h-43v-86h-43v-86h-39.5c-1,0-2.87-.56-3.5-1.5v-85.5h-43v-86H0V0h172ZM431,216h-171.5l-1.5,1.5v41.5h173v-43ZM560,216h-86v43h86v-43ZM690,259v-41.5l-1.5-1.5h-84l-1.5,1.5v41.5h87ZM819,216h-86v43h86v-43ZM1035,216h-173v43h173v-43ZM431,345v-41.5l-1.5-1.5h-127c-2.27,1.39-.5,2.15-.5,2.5v41.5l129-1ZM560,302h-84.5l-1.5,1.5v41l1.5,1.5h79c1.84,0,4.53.05,5.5-1.5v-42.5ZM690,345v-41.5l-1.5-1.5h-84l-1.5,1.5v41c0,.55,1.7,1.62,2.55,1.53l84.45-1.03ZM819,302h-86v42.5c.97,1.55,3.66,1.5,5.5,1.5h79l1.5-1.5v-42.5ZM990.5,302h-127l-1.5,1.5v41.5h130.01s-.06-40.6-.06-40.6c.16-.87-.81-2.21-1.45-2.4ZM431,389h-86v43h86v-43ZM560,389h-86v43h86v-43ZM690,389h-87v41.5l1.5,1.5h84l1.5-1.5v-41.5ZM819,389h-86v43h86v-43ZM948,389h-86v43h86v-43ZM431,475h-43v43h43v-43ZM560,475h-86v43h86v-43ZM690,475h-87v43h87v-43ZM819,475h-86v43h86v-43ZM905,475h-43v43h43v-43Z"/>
  <path class="cls-1" d="M862,691c-.09,28.65-.08,57.35,0,86-14.32-.04-28.68.03-43,0v-86c4.2-2.12,7.52-.04,11.46.04,10.49.23,21.11-.07,31.54-.04Z"/>
  <path class="cls-1" d="M862,691c.04-12.22-1.41-29.01-.05-40.55.17-1.46.12-2.57,1.55-3.45h84l1.5,1.5v42.5l41.5-.72,1.5,1.22v85.5h-43v43h-87c-.03-14.32.04-28.68,0-43,28.65.08,57.35-.06,86,0v-86h-86Z"/>
  <path class="cls-1" d="M431,777c-.04,14.32.03,28.68,0,43h-86c-.03-14.32.04-28.68,0-43,28.65.08,57.35.08,86,0Z"/>
  <path class="cls-1" d="M345,777c-14.65-.04-29.35.03-44,0v-85.5l1.65-1.32,42.35-.18v-43h86v43h43v87c-14.32.03-28.68-.04-43,0,.08-28.65-.06-57.35,0-86h-86c.06,28.65-.08,57.35,0,86Z"/>
</svg>