<svg width="48" height="48" viewBox="0 0 48 48" fill="none" xmlns="http://www.w3.org/2000/svg">
<g clip-path="url(#clip0_43_21)">
<path fill-rule="evenodd" clip-rule="evenodd" d="M24 0C37.2553 0 48 10.7447 48 24C48 37.2553 37.2553 48 24 48C10.7447 48 0 37.2553 0 24C0 10.7447 10.7447 0 24 0ZM29.3906 9.93844C29.3916 10.3678 29.5181 16.5788 36.0347 16.9659C36.0347 18.7566 36.0366 20.055 36.0366 21.7641C35.5434 21.7922 31.7466 21.5166 29.3831 19.4091L29.3756 28.7503C29.4656 35.2341 24.6947 39.1791 18.4575 37.8159C7.70344 34.5994 11.2772 18.6497 22.0753 20.3559C22.0753 25.5056 22.0781 20.355 22.0781 25.5056C17.6175 24.8494 16.125 28.56 17.3109 31.2178C18.3891 33.6366 22.8309 34.1606 24.3806 30.7481C24.5559 30.0806 24.6431 29.3184 24.6431 28.4634V9.915L29.3906 9.93844Z" fill="#D9D9D9"/>
</g>
<defs>
<clipPath id="clip0_43_21">
<rect width="48" height="48" fill="white"/>
</clipPath>
</defs>
</svg>
